<svg xmlns="http://www.w3.org/2000/svg" version="1.1" viewBox="-5.0 -10.0 110.0 135.0">
 <path d="m18.535 18.535c-6.3555 6.3516-4.793 18.477 2.9844 31.457-7.6406 12.738-9.4219 25.035-2.9844 31.473 6.3555 6.3594 18.484 4.793 31.457-2.9844 12.738 7.6406 25.035 9.4219 31.473 2.9844 6.3555-6.3516 4.7969-18.477-2.9844-31.457 7.6406-12.738 9.4219-25.035 2.9844-31.473-4.1719-4.1719-10.871-4.9531-18.773-2.6992-1.3281 0.375-2.0977 1.7617-1.7188 3.0898 0.37891 1.3242 1.7617 2.0938 3.0898 1.7148 6.332-1.8047 11.203-1.2383 13.867 1.4297 6.4766 6.4766-0.011719 24.758-15.555 40.305-1.1914 1.1914-2.4102 2.3398-3.6484 3.4414-1.0312 0.91797-1.1211 2.4961-0.20312 3.5273 0.91797 1.0312 2.4961 1.125 3.5273 0.20703 1.3125-1.1641 2.5977-2.3789 3.8594-3.6406 3.6211-3.6211 6.8086-7.4023 9.5-11.207 5.6562 10.344 6.5156 19.23 2.5195 23.227-6.4766 6.4766-24.758-0.011719-40.305-15.555-1.1914-1.1914-2.3398-2.4102-3.4414-3.6484-0.91797-1.0312-2.5-1.125-3.5312-0.20703s-1.1211 2.5-0.20312 3.5312c1.1641 1.3086 2.3789 2.5977 3.6406 3.8594 3.6211 3.6211 7.4023 6.8086 11.207 9.5-10.332 5.6484-19.227 6.5195-23.227 2.5195-6.4766-6.4766 0.011719-24.758 15.555-40.305 1.2773-1.2773 2.582-2.5 3.9062-3.6719l2.1133-1.7578c2.4609-2.0508 6-2.168 8.5898-0.28516l2.2891 1.6602c0.69531 0.50391 1.668 0.34766 2.1719-0.34766 0.37109-0.51562 0.39453-1.2031 0.054688-1.7422l-1.5781-2.4922c-1.6406-2.5938-1.4023-5.9531 0.58594-8.2891l1.8242-2.1367c0.58594-0.6875 0.50391-1.7227-0.18359-2.3086-0.5-0.42578-1.2031-0.51172-1.7891-0.22266l-4.1055 2.0312c-2.2695 1.125-4.9688 0.93359-7.0586-0.5l-3.0156-2.0664c-0.72266-0.49609-1.707-0.3125-2.1992 0.41016-0.35938 0.52344-0.37109 1.2109-0.03125 1.7461l1.4609 2.293c1.75 2.7422 1.3789 6.3281-0.89453 8.6523l-1.7539 1.7969c-1.332 1.1797-2.6406 2.4141-3.9219 3.6953-3.6211 3.6211-6.8086 7.4023-9.5 11.207-5.6523-10.34-6.5156-19.23-2.5195-23.227 2.1016-2.1016 5.5586-2.9102 10.109-2.2461 1.3633 0.19531 2.6328-0.75 2.832-2.1172 0.19922-1.3672-0.75-2.6328-2.1172-2.832-5.9805-0.86719-11.004 0.30078-14.359 3.6602zm42.891 14.668c-0.96484 0.99219-0.94141 2.5742 0.050781 3.5352 0.30078 0.29297 0.60156 0.58984 0.89844 0.88672 1.8867 1.8867 3.6641 3.8398 5.3164 5.832 0.88281 1.0625 2.457 1.207 3.5195 0.32812 1.0625-0.88281 1.2109-2.4609 0.32812-3.5234-1.75-2.1094-3.6328-4.1758-5.6289-6.1719-0.31641-0.31641-0.63281-0.62891-0.94922-0.9375-0.99219-0.96094-2.5742-0.9375-3.5352 0.050781z"/>
<text x="0.0" y="117.5" font-size="5.0" font-weight="bold" font-family="Arbeit Regular, Helvetica, Arial-Unicode, Arial, Sans-serif" fill="#000000"></text><text x="0.0" y="122.5" font-size="5.0" font-weight="bold" font-family="Arbeit Regular, Helvetica, Arial-Unicode, Arial, Sans-serif" fill="#000000"></text></svg>